<svg xmlns="http://www.w3.org/2000/svg" height="152" width="152"><defs><linearGradient id="a" y2="76" gradientUnits="userSpaceOnUse" x2="152" gradientTransform="translate(900.362 -152)" y1="76"><stop stop-color="#FFF" offset="0"/><stop stop-color="#dedede" offset="1"/></linearGradient><linearGradient id="b" y2="80" gradientUnits="userSpaceOnUse" x2="92" y1="176" x1="52"><stop stop-color="#9eabb0" offset="0"/><stop stop-color="#e6e9eb" offset="1"/></linearGradient></defs><g transform="translate(0 -900.362)" color="#000"><path fill="url(#a)" enable-background="accumulate" d="M228 900.36v152H-76v-152z"/><rect ry="4" rx="8" transform="translate(0 900.362)" height="24" width="120" stroke="#000" y="24" x="16" stroke-width="2" fill="#0e232e" enable-background="accumulate"/><path d="M96 924.36h8l-16 24h-8z" fill="#bdcdd4" enable-background="accumulate"/><path d="M112 924.36h8l-16 24h-8z" fill="#bdcdd4" enable-background="accumulate"/><path fill="#0e232e" enable-background="accumulate" d="M72 948.362h8v32h-8z"/><path d="M168 1020.362c0 30.928-41.19 56-92 56s-92-25.072-92-56 41.19-56 92-56 92 25.072 92 56z" fill="url(#b)" enable-background="accumulate"/><g><path d="M120 936.362c0 4.418-3.582 8-8 8s-8-3.582-8-8 3.582-8 8-8 8 3.582 8 8z" stroke="#566469" stroke-width="2" fill="#071319" enable-background="accumulate"/><path d="M114 936.362c0 1.105-.895 2-2 2s-2-.895-2-2 .895-2 2-2 2 .895 2 2z" fill="#ebebeb" enable-background="accumulate"/></g><g><path d="M48 936.362c0 4.418-3.582 8-8 8s-8-3.582-8-8 3.582-8 8-8 8 3.582 8 8z" stroke="#566469" stroke-width="2" fill="#071319" enable-background="accumulate"/><path d="M42 936.362c0 1.105-.895 2-2 2s-2-.895-2-2 .895-2 2-2 2 .895 2 2z" fill="#ebebeb" enable-background="accumulate"/></g></g></svg>