<svg xmlns="http://www.w3.org/2000/svg" xmlns:xlink="http://www.w3.org/1999/xlink" width="320" height="460"><defs><linearGradient id="b"><stop offset="0" stop-color="#9eabb0"/><stop offset="1" stop-color="#e6e9eb"/></linearGradient><linearGradient id="a"><stop offset="0" stop-color="#fff"/><stop offset="1" stop-color="#dedede"/></linearGradient><linearGradient xlink:href="#a" id="g" x1="-112" y1="76" x2="352" y2="76" gradientUnits="userSpaceOnUse" gradientTransform="translate(700.488 -236.126)"/><linearGradient xlink:href="#b" id="h" x1="52" y1="176" x2="92" y2="80" gradientUnits="userSpaceOnUse"/><linearGradient xlink:href="#c" x1="52" y1="176" x2="92" y2="80" gradientUnits="userSpaceOnUse"/><linearGradient id="c"><stop offset="0" stop-color="#9eabb0"/><stop offset="1" stop-color="#e6e9eb"/></linearGradient><linearGradient y2="104" x2="16" y1="152" x1="144" gradientUnits="userSpaceOnUse" id="i" xlink:href="#c"/><linearGradient y2="104" x2="16" y1="152" x1="144" gradientUnits="userSpaceOnUse" xlink:href="#d"/><linearGradient id="d"><stop offset="0" stop-color="#9eabb0"/><stop offset="1" stop-color="#e6e9eb"/></linearGradient><linearGradient y2="104" x2="16" y1="152" x1="144" gradientUnits="userSpaceOnUse" xlink:href="#d"/><linearGradient id="e"><stop offset="0" stop-color="#74878e"/><stop offset="1" stop-color="#b5bdc3"/></linearGradient><linearGradient y2="80" x2="92" y1="176" x1="52" gradientUnits="userSpaceOnUse" xlink:href="#e"/><linearGradient xlink:href="#e" id="j" gradientUnits="userSpaceOnUse" x1="96" y1="412" x2="160" y2="284" gradientTransform="translate(0 640.362)"/><linearGradient y2="104" x2="16" y1="152" x1="144" gradientUnits="userSpaceOnUse" xlink:href="#f"/><linearGradient id="f"><stop offset="0" stop-color="#9eabb0"/><stop offset="1" stop-color="#e6e9eb"/></linearGradient><linearGradient y2="104" x2="16" y1="152" x1="144" gradientUnits="userSpaceOnUse" xlink:href="#f"/></defs><g transform="translate(0 -592.362)"><path color="#000" fill="url(#g)" overflow="visible" enable-background="accumulate" d="M320.126 588.488v464h-320v-464z"/><rect width="120" height="24" x="100" y="724.362" ry="4" rx="8" color="#000" fill="#0e232e" stroke="#000" stroke-width="2" overflow="visible" enable-background="accumulate"/><path d="M180 724.362h8l-16 24h-8z" color="#000" fill="#bdcdd4" overflow="visible" enable-background="accumulate"/><path d="M196 724.362h8l-16 24h-8z" color="#000" fill="#bdcdd4" overflow="visible" enable-background="accumulate"/><path color="#000" fill="#0e232e" overflow="visible" enable-background="accumulate" d="M156 748.362h8v32h-8z"/><path color="#000" fill="#0e232e" overflow="visible" enable-background="accumulate" d="M144 844.362h32v96h-32z"/><path color="#000" fill="#364e59" overflow="visible" enable-background="accumulate" d="M184 844.362h8v112h-8z"/><path color="#000" fill="#364e59" overflow="visible" enable-background="accumulate" d="M128 844.362h8v112h-8z"/><path d="M96 812.362l-32 64-48-112" stroke="#0e232e" stroke-width="16" stroke-linecap="round" stroke-linejoin="round" fill="none"/><path d="M224 812.362l16 64 32 80" stroke="#0e232e" stroke-width="16" stroke-linecap="round" stroke-linejoin="round" fill="none"/><path d="M152 128a72 40 0 1 1-144 0 72 40 0 1 1 144 0z" transform="translate(80 692.362)" color="#000" fill="url(#h)" overflow="visible" enable-background="accumulate"/><g color="#000"><path transform="translate(132 -200) translate(16 932.362)" d="M56 4a8 8 0 1 1-16 0 8 8 0 1 1 16 0z" fill="#071319" stroke="#566469" stroke-width="2" overflow="visible" enable-background="accumulate"/><path transform="translate(132 -200) translate(-4 924.362)" d="M70 12a2 2 0 1 1-4 0 2 2 0 1 1 4 0z" fill="#ebebeb" overflow="visible" enable-background="accumulate"/></g><g color="#000"><path transform="translate(60 -200) translate(16 932.362)" d="M56 4a8 8 0 1 1-16 0 8 8 0 1 1 16 0z" fill="#071319" stroke="#566469" stroke-width="2" overflow="visible" enable-background="accumulate"/><path transform="translate(60 -200) translate(-4 924.362)" d="M70 12a2 2 0 1 1-4 0 2 2 0 1 1 4 0z" fill="#ebebeb" overflow="visible" enable-background="accumulate"/></g><path d="M144 128a64 24 0 1 1-128 0 64 24 0 1 1 128 0z" transform="matrix(0 1 -1 0 -72 780.362)" color="#000" fill="url(#i)" overflow="visible" enable-background="accumulate"/><path d="M128 940.362h64l32 112H96z" color="#000" fill="url(#j)" overflow="visible" enable-background="accumulate"/><text style="line-height:125%" x="161.752" y="648.791" font-size="40" letter-spacing="0" word-spacing="0" font-family="Sans"><tspan x="161.752" y="648.791" style="text-align:center" font-size="36" letter-spacing="0" text-anchor="middle">Amigo Mobile UI</tspan></text><path d="M8 716.362l-8 16 16 32 16-32-8-16" stroke="#000" stroke-width="8" stroke-linecap="round" stroke-linejoin="round" fill="none"/><path d="M264 1004.362l-8-16 16-32 16 32-8 16" stroke="#000" stroke-width="8" stroke-linecap="round" stroke-linejoin="round" fill="none"/></g></svg>