<svg xmlns="http://www.w3.org/2000/svg" xmlns:xlink="http://www.w3.org/1999/xlink" width="320" height="460"><defs><linearGradient id="b"><stop offset="0" stop-color="#9eabb0"/><stop offset="1" stop-color="#e6e9eb"/></linearGradient><linearGradient id="a"><stop offset="0" stop-color="#fff"/><stop offset="1" stop-color="#dedede"/></linearGradient><linearGradient xlink:href="#a" id="g" x1="-112" y1="76" x2="352" y2="76" gradientUnits="userSpaceOnUse" gradientTransform="translate(700.488 -236.126)"/><linearGradient xlink:href="#b" x1="52" y1="176" x2="92" y2="80" gradientUnits="userSpaceOnUse"/><linearGradient xlink:href="#c" x1="52" y1="176" x2="92" y2="80" gradientUnits="userSpaceOnUse"/><linearGradient id="c"><stop offset="0" stop-color="#9eabb0"/><stop offset="1" stop-color="#e6e9eb"/></linearGradient><linearGradient y2="104" x2="16" y1="152" x1="144" gradientUnits="userSpaceOnUse" id="h" xlink:href="#c"/><linearGradient y2="104" x2="16" y1="152" x1="144" gradientUnits="userSpaceOnUse" xlink:href="#d"/><linearGradient id="d"><stop offset="0" stop-color="#9eabb0"/><stop offset="1" stop-color="#e6e9eb"/></linearGradient><linearGradient y2="104" x2="16" y1="152" x1="144" gradientUnits="userSpaceOnUse" xlink:href="#d"/><linearGradient id="e"><stop offset="0" stop-color="#74878e"/><stop offset="1" stop-color="#b5bdc3"/></linearGradient><linearGradient y2="80" x2="92" y1="176" x1="52" gradientUnits="userSpaceOnUse" xlink:href="#e"/><linearGradient xlink:href="#e" gradientUnits="userSpaceOnUse" x1="96" y1="412" x2="160" y2="284" gradientTransform="translate(0 640.362)"/><linearGradient y2="104" x2="16" y1="152" x1="144" gradientUnits="userSpaceOnUse" xlink:href="#f"/><linearGradient id="f"><stop offset="0" stop-color="#9eabb0"/><stop offset="1" stop-color="#e6e9eb"/></linearGradient><linearGradient y2="104" x2="16" y1="152" x1="144" gradientUnits="userSpaceOnUse" xlink:href="#f"/></defs><g><path color="#000" fill="url(#g)" overflow="visible" enable-background="accumulate" d="M320.126-3.874v464h-320v-464z"/><path d="M-200 332c-13.255 0-24-28.654-24-64 0-35.346 10.745-64 24-64s24 28.654 24 64c0 35.346-10.745 64-24 64z" color="#000" fill="url(#h)" overflow="visible" enable-background="accumulate"/><text style="line-height:125%" x="161.752" y="648.791" font-size="40" letter-spacing="0" word-spacing="0" font-family="Sans" transform="translate(0 -592.362)"><tspan x="161.752" y="648.791" style="text-align:center" font-size="36" letter-spacing="0" text-anchor="middle">Sergio Mobile UI</tspan></text><path color="#000" fill="#0e232e" overflow="visible" enable-background="accumulate" d="M156 352h8v16h-8z"/><path d="M116 412c0-64 88-64 88 0v16h-88z" color="#000" fill="#0e232e" overflow="visible" enable-background="accumulate"/><path color="#000" fill="#0e232e" enable-background="accumulate" d="M100 436h120v24H100z"/><path d="M112 64a8 8 0 1 1-16 0 8 8 0 1 1 16 0z" transform="translate(0 -592.362) translate(76 932.362)" color="#000" fill="#fff" overflow="visible" enable-background="accumulate"/><path d="M112 64a8 8 0 1 1-16 0 8 8 0 1 1 16 0z" transform="translate(0 -592.362) translate(36 932.362)" color="#000" fill="#fff" overflow="visible" enable-background="accumulate"/><path d="M112 64a8 8 0 1 1-16 0 8 8 0 1 1 16 0z" transform="translate(0 -592.362) translate(56 876.362)" color="#000" fill="#0e232e" overflow="visible" enable-background="accumulate"/></g></svg>