<svg xmlns="http://www.w3.org/2000/svg" xmlns:xlink="http://www.w3.org/1999/xlink" height="152" width="152"><defs><linearGradient id="a" y2="76" gradientUnits="userSpaceOnUse" x2="152" gradientTransform="translate(900.362 -152)" y1="76"><stop stop-color="#FFF" offset="0"/><stop stop-color="#dedede" offset="1"/></linearGradient><linearGradient y2="80" gradientUnits="userSpaceOnUse" x2="92" y1="176" x1="52"><stop stop-color="#9eabb0" offset="0"/><stop stop-color="#e6e9eb" offset="1"/></linearGradient><linearGradient xlink:href="#a" id="b" gradientUnits="userSpaceOnUse" gradientTransform="translate(0 -152)" y1="76" x2="152" y2="76"/></defs><path color="#000" fill="url(#b)" enable-background="accumulate" d="M228-.002v152H-76v-152z"/><path fill="#0e232e" color="#000" overflow="visible" enable-background="accumulate" d="M72 44h8v16h-8z"/><path d="M32 104c0-64 88-64 88 0v16H32z" color="#000" fill="#0e232e" enable-background="accumulate" overflow="visible"/><path color="#000" fill="#0e232e" enable-background="accumulate" d="M16 128h120v24H16z"/><path d="M-40 120h8l-16 24h-8z" color="#000" fill="#bdcdd4" enable-background="accumulate"/><path d="M112 64a8 8 0 1 1-16 0 8 8 0 1 1 16 0z" transform="translate(-8 32)" color="#000" fill="#fff" overflow="visible" enable-background="accumulate"/><path d="M112 64a8 8 0 1 1-16 0 8 8 0 1 1 16 0z" transform="translate(-48 32)" color="#000" fill="#fff" overflow="visible" enable-background="accumulate"/><path d="M112 64a8 8 0 1 1-16 0 8 8 0 1 1 16 0z" transform="translate(-28 -24)" color="#000" fill="#0e232e" overflow="visible" enable-background="accumulate"/></svg>